<?xml version="1.0" standalone="no"?><!DOCTYPE svg PUBLIC "-//W3C//DTD SVG 1.1//EN" "http://www.w3.org/Graphics/SVG/1.1/DTD/svg11.dtd"><svg t="1594975961300" class="icon" viewBox="0 0 1024 1024" version="1.1" xmlns="http://www.w3.org/2000/svg" p-id="5170" xmlns:xlink="http://www.w3.org/1999/xlink" width="128" height="128"><defs><style type="text/css"></style></defs><path d="M211.494856 280.10737l39.77497-123.324476 107.546887-96.513608 183.097265-33.899749 179.042534 71.716313 81.646264 125.282883 35.747824 219.03817-33.872166 250.538182s-145.859948 168.229921-155.238235 149.307848c-9.240371-18.922073-75.522795 35.858157-75.522795 35.858157l134.937002 73.67472-49.539423 71.881812h-300.21552l-31.996509-69.923405 81.646264-41.760961-127.434372-135.323166-69.61999-93.562206-15.860339-260.606049 15.860339-142.384465z" fill="#A0D9F6" p-id="5171"></path><path d="M346.431858 332.90161a165.499184 165.499184 0 0 0 165.55435 165.471601 165.526768 165.526768 0 0 0 165.581934-165.471601c0-91.383133-74.171218-165.471601-165.581934-165.471602s-165.554351 74.088468-165.55435 165.471602" fill="#FFF000" p-id="5172"></path><path d="M803.513022 561.400817c0 160.727291-130.771939 291.719896-291.526814 291.719896-160.727291 0-291.49923-130.992605-291.49923-291.719896v-216.886681c0-160.534209 130.771939-291.526813 291.49923-291.526814 160.754875 0 291.526813 130.992605 291.526814 291.526814v216.886681z m-246.511035 344.707218l102.250912 64.599848h-300.518935l101.919914-64.599848h96.348109z m-45.015779-906.080452c-190.075813 0-344.596885 154.631405-344.596885 344.514136v216.886681c0 148.7286 94.665534 275.776808 226.926965 324.01982l-63.799935 40.381801a52.573574 52.573574 0 0 0-22.535473 59.690039 52.545991 52.545991 0 0 0 50.918583 38.202729h300.187937c23.942215 0 44.326198-15.363841 50.946166-38.202729 6.675134-23.03197-2.482488-46.891436-22.452723-59.690039l-61.648446-39.195723c134.137089-46.891436 230.76103-175.12572 230.761029-325.205898v-216.886681c-0.08275-189.882731-154.714154-344.514136-344.707218-344.514136z" fill="#2F318B" p-id="5173"></path><path d="M555.015996 660.865827h-86.059576a26.369537 26.369537 0 0 0-26.507452 26.39712c0 14.784594 11.722859 26.590202 26.39712 26.590202h86.169908a26.47987 26.47987 0 1 0 0-52.987322m-43.029788-188.889736a139.239981 139.239981 0 0 1-139.046898-139.074481 139.239981 139.239981 0 0 1 139.046898-139.074482 139.295147 139.295147 0 0 1 139.074482 139.074482 139.295147 139.295147 0 0 1-139.074482 139.074481z m0-331.108702c-105.974644 0-192.144553 86.087159-192.144553 192.034221 0 105.974644 86.169909 192.061804 192.144553 192.061803 106.002228 0 192.172136-86.087159 192.172137-192.061803s-86.169909-192.03422-192.172137-192.034221z" fill="#2F318B" p-id="5174"></path></svg>