<?xml version="1.0" standalone="no"?><!DOCTYPE svg PUBLIC "-//W3C//DTD SVG 1.1//EN" "http://www.w3.org/Graphics/SVG/1.1/DTD/svg11.dtd"><svg t="1594975980892" class="icon" viewBox="0 0 1536 1024" version="1.1" xmlns="http://www.w3.org/2000/svg" p-id="5608" xmlns:xlink="http://www.w3.org/1999/xlink" width="192" height="128"><defs><style type="text/css"></style></defs><path d="M204.8 846.037333a167.082667 153.6 90 1 0 307.2 0 167.082667 153.6 90 1 0-307.2 0Z" fill="#C4C4C4" p-id="5609"></path><path d="M128 846.037333c0-138.410667 103.125333-250.624 230.4-250.624 127.274667 0 230.4 112.213333 230.4 250.624H896c0-138.410667 103.125333-250.624 230.4-250.624 127.274667 0 230.4 112.213333 230.4 250.624h128c28.288 0 51.2-24.917333 51.2-55.68V651.093333c0-123.050667-91.733333-222.805333-204.8-222.805333H1152l-123.776-224.341333c-18.517333-33.578667-51.84-54.101333-87.808-54.101334H376.533333c-41.898667 0-79.530667 27.733333-95.104 69.973334L204.8 428.373333H102.4C45.866667 428.373333 0 478.293333 0 539.733333v194.901334c0 61.525333 45.866667 111.36 102.4 111.36H128z" fill="#ED925C" p-id="5610"></path><path d="M1152 428.373333l-92.16-167.082666H266.24L204.8 428.330667z" fill="#FFFFFF" p-id="5611"></path><path d="M1059.84 261.290667H266.24l15.189333-41.386667c15.573333-42.24 53.248-69.973333 95.104-69.973333H940.373333c35.968 0 69.290667 20.48 87.808 54.058666l31.616 57.301334z" fill="#FAA16C" p-id="5612"></path><path d="M0 595.413333c84.821333 0 153.6-74.794667 153.6-167.082666H102.4C45.866667 428.373333 0 478.293333 0 539.733333v55.68z" fill="#C66B60" p-id="5613"></path><path d="M1529.557333 595.413333c-20.650667-87.338667-88.832-153.941333-172.757333-165.333333 0.853333 91.477333 69.290667 165.333333 153.6 165.333333h19.157333z" fill="#E7E4DD" p-id="5614"></path><path d="M972.8 846.037333a167.082667 153.6 90 1 0 307.2 0 167.082667 153.6 90 1 0-307.2 0Z" fill="#C4C4C4" p-id="5615"></path><path d="M1049.6 846.037333a83.541333 76.8 90 1 0 153.6 0 83.541333 76.8 90 1 0-153.6 0Z" fill="#EDEDED" p-id="5616"></path><path d="M281.6 846.037333a83.541333 76.8 90 1 0 153.6 0 83.541333 76.8 90 1 0-153.6 0Z" fill="#EDEDED" p-id="5617"></path><path d="M563.2 511.872h153.6v55.722667h-153.6zM768 511.872h153.6v55.722667H768z" fill="#E7E4DD" p-id="5618"></path><path d="M665.6 261.290667h51.2v167.04h-51.2z" fill="#8892A0" p-id="5619"></path><path d="M384 149.888V10.666667h76.8v55.68h409.6V10.666667h76.8v139.221333" fill="#D4D0C7" p-id="5620"></path><path d="M1.749333 520.618667c12.501333 3.285333 25.429333 5.205333 38.784 5.205333 39.253333 0 75.264-15.061333 103.552-40.064 6.058667-17.92 9.514667-37.205333 9.514667-57.429333H102.4c-50.517333 0-92.245333 39.936-100.650667 92.288z" fill="#E47C6E" p-id="5621"></path></svg>