<?xml version="1.0" standalone="no"?><!DOCTYPE svg PUBLIC "-//W3C//DTD SVG 1.1//EN" "http://www.w3.org/Graphics/SVG/1.1/DTD/svg11.dtd"><svg t="1594976096241" class="icon" viewBox="0 0 1024 1024" version="1.1" xmlns="http://www.w3.org/2000/svg" p-id="7849" xmlns:xlink="http://www.w3.org/1999/xlink" width="128" height="128"><defs><style type="text/css"></style></defs><path d="M190.3 55.2h643.4v953.2H190.3z" fill="#F65064" p-id="7850"></path><path d="M397.7 15.7h81.2v297.1h-81.2zM537.5 62.8h81.2v250h-81.2zM748.2 101L638.7 312.8l91.3 0.2 90.3-174.7zM198.3 138.3L288.6 313l91.4-0.2L270.5 101z" fill="#62B5F9" p-id="7851"></path><path d="M754.6 202.5V313H269.4V202.5h-79.1v243.7h643.4V202.5z" fill="#F65064" p-id="7852"></path><path d="M303.1 835.9c-8.6 0-15.6-7-15.6-15.6V565.8c0-8.6 7-15.6 15.6-15.6s15.6 7 15.6 15.6v254.5c0 8.6-7 15.6-15.6 15.6z" fill="#272A3B" p-id="7853"></path><path d="M380 919c-8.6 0-15.6-7-15.6-15.6V751c0-8.6 7-15.6 15.6-15.6s15.6 7 15.6 15.6v152.4c-0.1 8.6-7 15.6-15.6 15.6z" fill="#272A3B" p-id="7854"></path><path d="M833.7 39.6H494.5v-24c0-8.6-7-15.6-15.6-15.6h-81.2c-8.6 0-15.6 7-15.6 15.6v24H190.3c-8.6 0-15.6 7-15.6 15.6v953.2c0 8.6 7 15.6 15.6 15.6h643.4c8.6 0 15.6-7 15.6-15.6V55.2c0-8.6-7-15.6-15.6-15.6z m-15.6 391H205.9V218.1h48V313c0 8.6 7 15.6 15.6 15.6h485c8.6 0 15.6-7 15.6-15.6v-94.9h48v212.5zM205.9 186.9z m13.4-41.9l44.5-23 90.6 175.2-56.3 0.1-13.1-25.2v-69.6c0-8.6-7-15.6-15.6-15.6H241L219.3 145z m244.1 152.2h-50.1v-94.7h50.1v94.7z m139.7-86.8H553v-132h50.1v132zM553 241.5h50.1v55.7H553v-55.7z m224.7-54.6h-23.1c-8.6 0-15.6 7-15.6 15.6v59.3l-18.4 35.6-56.3-0.1L754.9 122l44.5 23-21.7 41.9z m35.1 0l5.4-10.4v10.4h-5.4z m5.3-67.2l-62.8-32.5c-7.6-4-17-1-21 6.7l-100 193.5V70.8h183.8v48.9zM521.9 70.8v226.6h-27.3V70.8h27.3z m-58.5-39.6v140.1h-50.1V31.2h50.1z m-81.2 39.6v212.3L284.3 93.9c-3.9-7.6-13.4-10.7-21-6.7l-57.4 29.7V70.8h176.3z m-176.3 922v-531h612.2v531H205.9z" fill="#272A3B" p-id="7855"></path></svg>