<?xml version="1.0" standalone="no"?><!DOCTYPE svg PUBLIC "-//W3C//DTD SVG 1.1//EN" "http://www.w3.org/Graphics/SVG/1.1/DTD/svg11.dtd"><svg t="1594975782880" class="icon" viewBox="0 0 1024 1024" version="1.1" xmlns="http://www.w3.org/2000/svg" p-id="2051" xmlns:xlink="http://www.w3.org/1999/xlink" width="128" height="128"><defs><style type="text/css"></style></defs><path d="M674.91 999.494V709.818a162.91 162.91 0 1 0-325.82 0v289.676h-95.673c-88.227-42.59-132.352-80.151-132.352-112.71V466.711L509.277 75.8l402.92 376.25v434.735c-29.858 75.148-72.657 112.71-128.372 112.71H674.91z" fill="#FD4C5D" p-id="2052"></path><path d="M884.364 465.455h46.545v384c0 48.896-13.033 91.95-43.194 121.25C851.92 1005.428 816.407 1024 775.773 1024H272.198c-42.403 0-91.043-21.388-123.95-53.295-32.978-32.046-55.157-79.592-55.157-121.25v-384h46.545v384c0 28.392 16.687 64.186 41.053 87.854 24.53 23.785 61.743 40.146 91.532 40.146H775.75c26.624 0 51.665-13.08 79.546-40.123 19.596-19.06 29.068-50.408 29.068-87.877v-384z" fill="#FD4C5D" p-id="2053"></path><path d="M511.535 79.523L39.773 553.076 6.796 520.24 511.535 13.59l504.738 506.648-32.977 32.837z" fill="#FD4C5D" p-id="2054"></path></svg>