<?xml version="1.0" standalone="no"?><!DOCTYPE svg PUBLIC "-//W3C//DTD SVG 1.1//EN" "http://www.w3.org/Graphics/SVG/1.1/DTD/svg11.dtd"><svg t="1594975816400" class="icon" viewBox="0 0 1024 1024" version="1.1" xmlns="http://www.w3.org/2000/svg" p-id="2332" xmlns:xlink="http://www.w3.org/1999/xlink" width="128" height="128"><defs><style type="text/css"></style></defs><path d="M371.712 253.952h274.432s65.536-98.304 79.872-124.928c5.12-9.216 9.216-30.72-20.48-40.96C675.84 78.848 563.2 71.68 514.048 71.68c-43.008 0-154.624 5.12-194.56 19.456-10.24 4.096-29.696 15.36-18.432 37.888 12.288 27.648 70.656 124.928 70.656 124.928zM904.192 569.344L715.776 326.656H309.248L123.904 563.2c-55.296 81.92-55.296 200.704-5.12 273.408C162.816 902.144 234.496 942.08 311.296 942.08h410.624c89.088 0 169.984-63.488 202.752-139.264 28.672-65.536 31.744-168.96-20.48-233.472zM568.32 442.368l47.104 6.144c-3.072 8.192-7.168 16.384-11.264 24.576h100.352V512C686.08 578.56 624.64 624.64 521.216 651.264l-22.528-40.96c30.72-7.168 57.344-15.36 79.872-26.624-11.264-11.264-21.504-21.504-32.768-30.72l31.744-23.552c12.288 10.24 24.576 22.528 35.84 34.816 20.48-14.336 35.84-31.744 46.08-50.176H573.44c-17.408 17.408-36.864 32.768-60.416 46.08l-28.672-36.864c40.96-22.528 69.632-49.152 83.968-80.896zM348.16 457.728c26.624 12.288 51.2 27.648 72.704 47.104L395.264 542.72c-23.552-20.48-47.104-36.864-72.704-48.128l25.6-36.864z m86.016 95.232V442.368H481.28v208.896h-47.104v-52.224c-29.696 14.336-63.488 27.648-102.4 38.912l-19.456-43.008C358.4 583.68 399.36 569.344 434.176 552.96z m266.24 300.032c-95.232-21.504-156.672-56.32-182.272-105.472-30.72 48.128-94.208 82.944-190.464 105.472l-19.456-43.008c84.992-17.408 141.312-45.056 167.936-81.92H318.464v-45.056h174.08c1.024-9.216 2.048-18.432 2.048-29.696h46.08c0 10.24 0 20.48-1.024 29.696h172.032v45.056H551.936c30.72 38.912 87.04 65.536 167.936 80.896l-19.456 44.032z" fill="#FFC331" p-id="2333"></path></svg>