<?xml version="1.0" standalone="no"?><!DOCTYPE svg PUBLIC "-//W3C//DTD SVG 1.1//EN" "http://www.w3.org/Graphics/SVG/1.1/DTD/svg11.dtd"><svg t="1594803281225" class="icon" viewBox="0 0 1024 1024" version="1.1" xmlns="http://www.w3.org/2000/svg" p-id="3511" xmlns:xlink="http://www.w3.org/1999/xlink" width="128" height="128"><defs><style type="text/css"></style></defs><path d="M556.5 960.1h-89.1c-207.2 0-351.9-102.7-351.9-249.6 0-156.6 99.7-405.1 367.3-405.1H541c267.6 0 367.3 248.5 367.3 405.1 0.1 147-144.6 249.6-351.8 249.6z m78.8-310.4c18.9 0 34.3-15.6 34.3-34.7 0-19.2-15.4-34.7-34.3-34.7h-85.7l78.9-78.3c13.5-13.4 13.8-35.4 0.5-49.1-13.2-13.7-35-13.9-48.5-0.5l-68.5 68-68.5-68c-13.5-13.4-35.2-13.2-48.5 0.5-13.3 13.7-13 35.7 0.5 49.1l78.9 78.3h-85.7c-18.9 0-34.3 15.6-34.3 34.7 0 19.2 15.4 34.7 34.3 34.7h89v36.2h-89c-18.9 0-34.3 15.6-34.3 34.7 0 19.2 15.4 34.7 34.3 34.7h89v53.5c0 19.2 15.4 34.7 34.3 34.7s34.3-15.6 34.3-34.7v-53.5h89c18.9 0 34.3-15.6 34.3-34.7 0-19.2-15.4-34.7-34.3-34.7h-89v-36.2h89z m-54.5-369.5l-65.3 4.4c-0.7 0-1.4 0.1-2.2 0.1-0.7 0-1.4 0-2.1-0.1l-68-4.4c-60-1.5-139.2-108.4-139.2-136.6 0-73.9 159.1-79.7 207.9-79.7 48.8 0 207.9 5.7 207.9 79.7 0.1 28.2-79 135-139 136.6z" p-id="3512"></path></svg>