<?xml version="1.0" standalone="no"?><!DOCTYPE svg PUBLIC "-//W3C//DTD SVG 1.1//EN" "http://www.w3.org/Graphics/SVG/1.1/DTD/svg11.dtd"><svg t="1594975703368" class="icon" viewBox="0 0 1024 1024" version="1.1" xmlns="http://www.w3.org/2000/svg" p-id="1770" xmlns:xlink="http://www.w3.org/1999/xlink" width="128" height="128"><defs><style type="text/css"></style></defs><path d="M678.0928 283.4432v1.2288c0 41.0624-33.28 41.5744-74.24 41.5744H419.2256c-41.0624 0-74.24-0.512-74.24-41.5744v-1.2288c-44.032 19.1488-74.9568 63.0784-74.9568 114.176v444.5184c0 68.7104 55.7056 124.5184 124.5184 124.5184h233.984c68.7104 0 124.5184-55.7056 124.5184-124.5184v-444.416c-0.1024-51.2-30.9248-95.1296-74.9568-114.2784z m-11.6736 588.5952c0 9.4208-7.68 17.1008-17.1008 17.1008s-17.1008-7.68-17.1008-17.1008v-45.568h-92.9792c-9.4208 0-17.1008-7.68-17.1008-17.1008s7.68-17.1008 17.1008-17.1008h92.9792V736.256h-92.9792c-9.4208 0-17.1008-7.68-17.1008-17.1008s7.68-17.1008 17.1008-17.1008h92.9792v-56.2176h-92.9792c-9.4208 0-17.1008-7.68-17.1008-17.1008s7.68-17.1008 17.1008-17.1008h92.9792v-56.1152h-92.9792c-9.4208 0-17.1008-7.68-17.1008-17.1008s7.68-17.1008 17.1008-17.1008h92.9792v-56.2176h-92.9792c-9.4208 0-17.1008-7.68-17.1008-17.1008s7.68-17.1008 17.1008-17.1008h92.9792v-35.9424c0-9.4208 7.68-17.1008 17.1008-17.1008s17.1008 7.68 17.1008 17.1008v477.0816z" fill="#EA564E" p-id="1771"></path><path d="M419.2256 326.2464h184.6272c41.0624 0 74.24-0.512 74.24-41.5744v-45.8752c0-41.0624-33.28-74.24-74.24-74.24h-31.5392l6.8608-67.3792c3.2768-31.5392-19.7632-59.8016-51.3024-63.0784-1.9456-0.2048-3.8912-0.3072-5.8368-0.3072h-20.8896a57.42592 57.42592 0 0 0-57.1392 63.2832l6.8608 67.3792h-31.5392c-41.0624 0-74.24 33.28-74.24 74.24v45.8752c-0.2048 41.1648 33.0752 41.6768 74.1376 41.6768z" fill="#F9D1D3" p-id="1772"></path><path d="M649.4208 378.368c-9.4208 0-17.1008 7.68-17.1008 17.1008v35.9424h-92.9792c-9.4208 0-17.1008 7.68-17.1008 17.1008s7.68 17.1008 17.1008 17.1008h92.9792v56.2176h-92.9792c-9.4208 0-17.1008 7.68-17.1008 17.1008s7.68 17.1008 17.1008 17.1008h92.9792v56.1152h-92.9792c-9.4208 0-17.1008 7.68-17.1008 17.1008s7.68 17.1008 17.1008 17.1008h92.9792v56.2176h-92.9792c-9.4208 0-17.1008 7.68-17.1008 17.1008s7.68 17.1008 17.1008 17.1008h92.9792v56.2176h-92.9792c-9.4208 0-17.1008 7.68-17.1008 17.1008s7.68 17.1008 17.1008 17.1008h92.9792v45.568c0 9.4208 7.68 17.1008 17.1008 17.1008s17.1008-7.68 17.1008-17.1008V395.4688a17.2032 17.2032 0 0 0-17.1008-17.1008z" fill="#FFFFFF" p-id="1773"></path></svg>