<?xml version="1.0" standalone="no"?><!DOCTYPE svg PUBLIC "-//W3C//DTD SVG 1.1//EN" "http://www.w3.org/Graphics/SVG/1.1/DTD/svg11.dtd"><svg t="1594975995793" class="icon" viewBox="0 0 1024 1024" version="1.1" xmlns="http://www.w3.org/2000/svg" p-id="5902" xmlns:xlink="http://www.w3.org/1999/xlink" width="128" height="128"><defs><style type="text/css"></style></defs><path d="M334.4384 323.7888h332.5952S901.12 450.56 881.8688 712.2944c-15.9744 206.4384-204.8 285.0816-382.976 285.0816S143.36 930.2016 118.9888 729.9072C87.04 456.9088 334.4384 323.7888 334.4384 323.7888z" fill="#ED4A4A" p-id="5903"></path><path d="M498.8928 935.936C319.6928 935.936 143.36 868.7616 118.9888 668.4672c0-5.9392-1.024-11.6736-1.4336-17.408a402.0224 402.0224 0 0 0 1.4336 78.848C143.36 930.2016 319.6928 997.376 498.8928 997.376s367.2064-78.6432 382.976-285.0816a397.9264 397.9264 0 0 0 0-61.44c-16.1792 206.4384-203.9808 285.0816-382.976 285.0816z" fill="#DD3333" p-id="5904"></path><path d="M334.4384 325.4272L266.24 169.984s-12.9024-60.2112 44.032-67.584c46.4896-6.144 60.2112 40.96 93.184 35.6352S420.6592 40.96 497.664 40.96c83.1488 0 61.44 87.04 88.4736 94.208 38.5024 10.0352 58.368-36.4544 95.4368-37.0688C741.9904 97.28 730.9312 163.84 730.9312 163.84l-61.44 166.2976z" fill="#ED4A4A" p-id="5905"></path><path d="M480.256 660.2752h124.5184v102.4h-20.48v-9.6256h-81.92v10.0352h-20.48v-86.016l-10.4448 13.9264a321.7408 321.7408 0 0 0-21.9136-24.1664v95.232H425.984v-81.92a204.8 204.8 0 0 1-28.672 23.7568 73.5232 73.5232 0 0 0-10.6496-20.48 182.0672 182.0672 0 0 0 64.9216-70.2464h-56.1152V593.92h71.2704l12.4928 7.5776a233.0624 233.0624 0 0 1-26.0096 47.5136c6.9632 5.5296 20.48 17.2032 27.2384 23.1424zM430.08 593.92a262.144 262.144 0 0 0-18.432-33.3824L430.08 552.96a277.504 277.504 0 0 1 18.8416 32.1536z m175.3088-31.5392v18.2272h-126.3616v-18.2272zM593.92 592.6912v54.8864h-102.4v-54.8864z m-93.3888 84.992v20.48h30.5152v-20.48z m0 56.9344h30.5152v-20.48h-30.3104zM573.44 609.4848h-61.44v20.48h61.44z m9.8304 68.1984h-31.744v20.48h31.9488z m0 56.9344v-20.48h-31.744v20.48z" fill="#FFDA71" p-id="5906"></path><path d="M502.784 857.9072a204.8 204.8 0 0 1-207.6672-200.704 204.8 204.8 0 0 1 207.6672-200.704 204.8 204.8 0 0 1 207.6672 200.704 204.8 204.8 0 0 1-207.6672 200.704z m0-380.7232a184.32 184.32 0 0 0-187.1872 180.224 184.32 184.32 0 0 0 187.1872 180.224 184.32 184.32 0 0 0 187.1872-180.224 184.32 184.32 0 0 0-187.1872-180.224z" fill="#FFDA71" p-id="5907"></path><path d="M945.5616 463.6672a92.9792 92.9792 0 0 0-5.9392-61.44 57.344 57.344 0 0 0-40.96-27.8528 102.4 102.4 0 0 0-80.4864 22.3232c-20.48 13.9264-39.5264 25.8048-69.0176 18.0224-44.8512-12.0832-71.0656-61.44-78.848-79.2576 6.9632-1.4336 10.6496-2.4576 11.264-2.4576l-5.5296-20.48a748.3392 748.3392 0 0 1-173.2608 13.7216c-122.88 0-173.4656-14.336-174.08-14.5408l-5.7344 20.48s4.9152 1.4336 13.1072 3.072a116.3264 116.3264 0 0 1-92.5696 70.656 191.0784 191.0784 0 0 0-147.2512 124.1088 33.5872 33.5872 0 0 0-18.432 4.096 31.1296 31.1296 0 0 0-12.0832 43.4176 33.5872 33.5872 0 0 0 44.8512 11.6736 31.1296 31.1296 0 0 0 12.288-43.4176 31.744 31.744 0 0 0-7.5776-8.3968 171.008 171.008 0 0 1 132.096-111.8208 134.3488 134.3488 0 0 0 108.9536-87.2448 1013.5552 1013.5552 0 0 0 146.2272 8.8064 1053.9008 1053.9008 0 0 0 146.8416-8.3968c5.12 12.4928 34.816 79.6672 94.208 95.6416a97.4848 97.4848 0 0 0 85.6064-20.48 81.92 81.92 0 0 1 65.3312-20.48 37.2736 37.2736 0 0 1 27.2384 17.8176 73.1136 73.1136 0 0 1 3.6864 47.9232A31.744 31.744 0 1 0 962.56 491.52a31.5392 31.5392 0 0 0-16.9984-27.8528zM413.4912 212.5824c14.7456 0 9.0112-51.2 3.6864-84.5824a20.48 20.48 0 0 1-13.7216 10.0352 36.0448 36.0448 0 0 1-26.2144-6.7584c6.9632 30.3104 20.8896 81.3056 36.2496 81.3056zM586.1376 135.168a13.312 13.312 0 0 1-6.144-3.8912c-5.7344 28.672-11.8784 76.5952-1.4336 78.848s27.8528-49.152 37.6832-78.2336a42.5984 42.5984 0 0 1-30.1056 3.2768z" fill="#DD3333" p-id="5908"></path></svg>