<?xml version="1.0" standalone="no"?><!DOCTYPE svg PUBLIC "-//W3C//DTD SVG 1.1//EN" "http://www.w3.org/Graphics/SVG/1.1/DTD/svg11.dtd"><svg t="1594624972547" class="icon" viewBox="0 0 1024 1024" version="1.1" xmlns="http://www.w3.org/2000/svg" p-id="2929" xmlns:xlink="http://www.w3.org/1999/xlink" width="128" height="128"><defs><style type="text/css"></style></defs><path d="M916.73793 95.32865C830.984437 9.575157 711.124441 0.317678 663.618955 0.317678a233.629545 233.629545 0 0 0-24.361788 0A73.085363 73.085363 0 0 0 572.749486 73.403041v292.341453a73.085363 73.085363 0 0 0 73.085364 73.085364h292.341453a73.085363 73.085363 0 0 0 73.085363-73.085364c0-17.540487-2.679797-178.571904-94.523736-270.415844zM645.83485 365.744494V73.403041h17.784105c39.466096 0 135.207922 7.308536 201.471985 73.085363 73.085363 73.085363 73.085363 219.25609 73.085363 219.25609z" p-id="2930"></path><path d="M840.729152 487.553433H524.025911V170.850192a73.085363 73.085363 0 0 0-73.085364-73.085363C209.027995 97.764829 12.428367 301.91661 12.428367 560.638797c0 251.657268 187.342148 462.873968 438.51218 462.873967a469.45165 469.45165 0 0 0 462.873968-462.873967 73.085363 73.085363 0 0 0-73.085363-73.085364zM450.940547 950.427401C239.723847 950.427401 85.513731 772.342732 85.513731 560.638797S239.723847 170.850192 450.940547 170.850192v389.788605h389.788605a395.148198 395.148198 0 0 1-389.788605 389.788604z" p-id="2931"></path></svg>