<?xml version="1.0" standalone="no"?><!DOCTYPE svg PUBLIC "-//W3C//DTD SVG 1.1//EN" "http://www.w3.org/Graphics/SVG/1.1/DTD/svg11.dtd"><svg t="1594625069757" class="icon" viewBox="0 0 1280 1024" version="1.1" xmlns="http://www.w3.org/2000/svg" p-id="894" xmlns:xlink="http://www.w3.org/1999/xlink" width="160" height="128"><defs><style type="text/css"></style></defs><path d="M995.88 451.88L572.12 28.12A96 96 0 0 0 504.24 0H96A96 96 0 0 0 0 96v408.24a96 96 0 0 0 28.12 67.88l423.76 423.76a96 96 0 0 0 135.76 0l408.24-408.24a96 96 0 0 0 0-135.76zM224 320a96 96 0 1 1 96-96 96 96 0 0 1-96 96z" fill="#dbdbdb" p-id="895"></path><path d="M1251.88 587.64L843.64 995.88a96 96 0 0 1-135.76 0l-0.72-0.72 348.12-348.12a180 180 0 0 0 0-254.56L662.8 0h97.44a96 96 0 0 1 67.88 28.12l423.76 423.76a96 96 0 0 1 0 135.76z" fill="#dbdbdb" p-id="896"></path></svg>