<?xml version="1.0" standalone="no"?><!DOCTYPE svg PUBLIC "-//W3C//DTD SVG 1.1//EN" "http://www.w3.org/Graphics/SVG/1.1/DTD/svg11.dtd"><svg t="1594976037806" class="icon" viewBox="0 0 1024 1024" version="1.1" xmlns="http://www.w3.org/2000/svg" p-id="6666" xmlns:xlink="http://www.w3.org/1999/xlink" width="128" height="128"><defs><style type="text/css"></style></defs><path d="M444.464 386.336L324.08 55.584l90.208-32.832 210.592 297.936z" fill="#42A5B2" p-id="6667"></path><path d="M76.784 452.064l722.848-263.088a64 64 0 0 1 55.184 5.472l61.216 37.28a64 64 0 0 1 43.776 120.288L448.624 538.064l-339.008 4.208-32.832-90.208z" fill="#62C4C3" p-id="6668"></path><path d="M82.208 279.824l-60.144 21.888 54.72 150.352 120.288-43.776zM466.368 446.48l120.368 330.768 90.24-32.832-30.208-363.6z" fill="#42A5B2" p-id="6669"></path><path d="M814.88 234.528l75.2-27.344 10.928 30.08-75.2 27.328zM709.6 272.8l30.08-10.944 10.928 30.048-30.064 10.944zM649.472 294.672l30.048-10.928 10.944 30.048-30.064 10.944zM589.344 316.576l30.064-10.928 10.928 30.048-30.048 10.944zM529.2 338.464l30.064-10.928 10.928 30.048-30.048 10.944zM469.056 360.352l30.064-10.928 10.928 30.048-30.048 10.944zM408.928 382.24l30.048-10.928 10.944 30.048-30.064 10.944zM348.784 404.128l30.048-10.928 10.944 30.048-30.064 10.944zM288.64 426.064l30.08-10.96 10.96 30.08-30.08 10.944zM228.512 447.952l30.064-10.96 10.944 30.08-30.064 10.944zM576 864H304c-52.944 0-96-43.056-96-96s43.056-96 96-96h112v32h-112c-35.296 0-64 28.704-64 64s28.704 64 64 64h272v32zM608 832h32v32h-32z" fill="#3A4249" p-id="6670"></path><path d="M808 976H304v-32h504c22.064 0 40-17.952 40-40S830.064 864 808 864H672v-32h136c39.696 0 72 32.304 72 72S847.696 976 808 976zM112 944h160v32H112z" fill="#3A4249" p-id="6671"></path><path d="M80 960m-48 0a48 48 0 1 0 96 0 48 48 0 1 0-96 0Z" fill="#EFBC2E" p-id="6672"></path><path d="M448 688m-48 0a48 48 0 1 0 96 0 48 48 0 1 0-96 0Z" fill="#EFBC2E" p-id="6673"></path></svg>