<?xml version="1.0" standalone="no"?><!DOCTYPE svg PUBLIC "-//W3C//DTD SVG 1.1//EN" "http://www.w3.org/Graphics/SVG/1.1/DTD/svg11.dtd"><svg t="1594976011113" class="icon" viewBox="0 0 1024 1024" version="1.1" xmlns="http://www.w3.org/2000/svg" p-id="6207" xmlns:xlink="http://www.w3.org/1999/xlink" width="128" height="128"><defs><style type="text/css"></style></defs><path d="M512 512m-414 0a414 414 0 1 0 828 0 414 414 0 1 0-828 0Z" fill="#F0C48A" p-id="6208"></path><path d="M184.2 11.8h242v575h-242z" fill="#D3E6F8" p-id="6209"></path><path d="M367.6 11.8h58.6V588h-58.6z" fill="#A4CFF2" p-id="6210"></path><path d="M264.6 586.8h81.2v425.6h-81.2z" fill="#FFFFFF" p-id="6211"></path><path d="M305.2 586.8h40.6v425.6h-40.6z" fill="#D3E6F8" p-id="6212"></path><path d="M305.2 473.6m-56.8 0a56.8 56.8 0 1 0 113.6 0 56.8 56.8 0 1 0-113.6 0Z" fill="#7BABF1" p-id="6213"></path><path d="M305.2 299.2m-56.8 0a56.8 56.8 0 1 0 113.6 0 56.8 56.8 0 1 0-113.6 0Z" fill="#7BABF1" p-id="6214"></path><path d="M305.2 125m-56.8 0a56.8 56.8 0 1 0 113.6 0 56.8 56.8 0 1 0-113.6 0Z" fill="#FD919E" p-id="6215"></path><path d="M426.2 71h70.8c15 0 22.4 18.2 11.8 28.8l-79.2 79.2M426.2 245.2h70.8c15 0 22.4 18.2 11.8 28.8l-79.2 79.2M426.2 419.6h70.8c15 0 22.4 18.2 11.8 28.8l-79.2 79.2M184.2 71H113.4c-15 0-22.4 18.2-11.8 28.8l79.2 79.2M184.2 245.2H113.4c-15 0-22.4 18.2-11.8 28.8l79.2 79.2M184.2 419.6H113.4c-15 0-22.4 18.2-11.8 28.8l79.2 79.2" fill="#7BABF1" p-id="6216"></path><path d="M426.2 598.4h-242c-6.4 0-11.8-5.2-11.8-11.8V11.8c0-6.4 5.2-11.8 11.8-11.8h242c6.4 0 11.8 5.2 11.8 11.8v575c-0.2 6.4-5.4 11.6-11.8 11.6zM195.8 575h218.6V23.4H195.8v551.6z" fill="#4C4372" p-id="6217"></path><path d="M305.2 193.4c-37.8 0-68.4-30.8-68.4-68.4s30.8-68.4 68.4-68.4 68.4 30.8 68.4 68.4-30.6 68.4-68.4 68.4z m0-113.4c-24.8 0-45 20.2-45 45S280.4 170 305.2 170s45-20.2 45-45S330 80 305.2 80zM305.2 367.8c-37.8 0-68.4-30.8-68.4-68.4s30.8-68.4 68.4-68.4 68.4 30.8 68.4 68.4-30.6 68.4-68.4 68.4z m0-113.6c-24.8 0-45 20.2-45 45s20.2 45 45 45 45-20.2 45-45-20.2-45-45-45zM305.2 542c-37.8 0-68.4-30.8-68.4-68.6s30.8-68.4 68.4-68.4 68.4 30.8 68.4 68.4-30.6 68.6-68.4 68.6z m0-113.6c-24.8 0-45 20.2-45 45s20.2 45 45 45 45-20.2 45-45-20.2-45-45-45zM429.6 190.6c-3 0-6-1.2-8.2-3.4-4.6-4.6-4.6-12 0-16.6l79.2-79.2c2-2 1.6-4.4 1.2-5.6-0.4-1.2-1.8-3.2-4.8-3.2h-70.8c-6.4 0-11.8-5.2-11.8-11.8 0-6.4 5.2-11.8 11.8-11.8h70.8c11.6 0 22 7 26.4 17.6 4.4 10.8 2 23-6.2 31.2L438 187.2c-2.4 2.2-5.4 3.4-8.4 3.4zM429.6 364.8c-3 0-6-1.2-8.2-3.4-4.6-4.6-4.6-12 0-16.6l79.2-79.2c2-2 1.6-4.4 1.2-5.6-0.4-1.2-1.8-3.2-4.8-3.2h-70.8c-6.4 0-11.8-5.2-11.8-11.8s5.2-11.8 11.8-11.8h70.8c11.6 0 22 7 26.4 17.6 4.4 10.8 2 23-6.2 31.2L438 361.4c-2.4 2.4-5.4 3.4-8.4 3.4zM429.6 539.2c-3 0-6-1.2-8.2-3.4-4.6-4.6-4.6-12 0-16.6l79.2-79.2c2-2 1.6-4.4 1.2-5.6-0.4-1.2-1.8-3.2-4.8-3.2h-70.8c-6.4 0-11.8-5.2-11.8-11.8s5.2-11.8 11.8-11.8h70.8c11.6 0 22 7 26.4 17.6 4.4 10.8 2 23-6.2 31.2L438 535.8c-2.4 2.2-5.4 3.4-8.4 3.4zM180.6 190.6c-3 0-6-1.2-8.2-3.4L93.2 108c-8.2-8.2-10.6-20.4-6.2-31.2s14.8-17.6 26.4-17.6h70.8c6.4 0 11.8 5.2 11.8 11.8 0 6.4-5.2 11.8-11.8 11.8H113.4c-3 0-4.2 2-4.8 3.2-0.4 1.2-1 3.4 1.2 5.6l79.2 79.2c4.6 4.6 4.6 12 0 16.6-2.4 2-5.4 3.2-8.4 3.2zM180.6 364.8c-3 0-6-1.2-8.2-3.4l-79.2-79.2c-8.2-8.2-10.6-20.4-6.2-31.2s14.8-17.6 26.4-17.6h70.8c6.4 0 11.8 5.2 11.8 11.8s-5.2 11.8-11.8 11.8H113.4c-3 0-4.2 2-4.8 3.2-0.4 1.2-1 3.4 1.2 5.6l79.2 79.2c4.6 4.6 4.6 12 0 16.6-2.4 2.2-5.4 3.2-8.4 3.2zM180.6 539.2c-3 0-6-1.2-8.2-3.4l-79.2-79.2c-8.2-8.2-10.6-20.4-6.2-31.2s14.8-17.6 26.4-17.6h70.8c6.4 0 11.8 5.2 11.8 11.8s-5.2 11.8-11.8 11.8H113.4c-3 0-4.2 2-4.8 3.2-0.4 1.2-1 3.4 1.2 5.6l79.2 79.2c4.6 4.6 4.6 12 0 16.6-2.4 2-5.4 3.2-8.4 3.2zM345.8 1024h-81.2c-6.4 0-11.8-5.2-11.8-11.8V586.8c0-6.4 5.2-11.8 11.8-11.8h81.2c6.4 0 11.8 5.2 11.8 11.8v425.6c-0.2 6.4-5.4 11.6-11.8 11.6z m-69.4-23.4H334v-402h-57.8v402z" fill="#4C4372" p-id="6218"></path><path d="M914.6 344c-3 0-6-1.2-8.2-3.4-80.2-80.2-211-80.2-291.2 0-4.6 4.6-12 4.6-16.6 0-4.6-4.6-4.6-12 0-16.6 89.4-89.4 235-89.4 324.4 0 4.6 4.6 4.6 12 0 16.6-2.4 2.2-5.4 3.4-8.4 3.4z" fill="#4C4372" p-id="6219"></path><path d="M865.6 392.8c-3 0-6-1.2-8.2-3.4-53.4-53.4-140.2-53.4-193.6 0-4.6 4.6-12 4.6-16.6 0-4.6-4.6-4.6-12 0-16.6 62.6-62.6 164.2-62.6 226.8 0 4.6 4.6 4.6 12 0 16.6-2.4 2.2-5.4 3.4-8.4 3.4z" fill="#4C4372" p-id="6220"></path><path d="M734.8 540.4h51.4V668h-51.4z" fill="#FFFFFF" p-id="6221"></path><path d="M760.6 586.8h18.2v74.6h-18.2z" fill="#D3E6F8" p-id="6222"></path><path d="M883.8 668H637.4c-24.2 0-43.8 19.6-43.8 43.8 0 24.2 19.6 43.8 43.8 43.8h246.2c24.2 0 43.8-19.6 43.8-43.8 0-24.2-19.6-43.8-43.6-43.8z" fill="#7BABF1" p-id="6223"></path><path d="M883.8 767.2H637.4c-30.6 0-55.4-24.8-55.4-55.4s24.8-55.4 55.4-55.4h246.2c30.6 0 55.4 24.8 55.4 55.4s-24.6 55.4-55.2 55.4z m-246.4-87.4c-17.6 0-32 14.4-32 32s14.4 32 32 32h246.2c17.6 0 32-14.4 32-32s-14.4-32-32-32H637.4z" fill="#4C4372" p-id="6224"></path><path d="M786.4 679.8h-51.4c-6.4 0-11.8-5.2-11.8-11.8v-127.6c0-6.4 5.2-11.8 11.8-11.8h51.4c6.4 0 11.8 5.2 11.8 11.8V668c-0.2 6.4-5.4 11.8-11.8 11.8z m-39.8-23.6h28v-104h-28v104z" fill="#4C4372" p-id="6225"></path><path d="M741.054392 585.71084a86.8 86.8 0 1 0 39.145969-169.128806 86.8 86.8 0 1 0-39.145969 169.128806Z" fill="#E8677D" p-id="6226"></path><path d="M673.8 501.2c0 22.4 8.4 42.6 22.2 58 11.6 5.8 24.8 9.2 38.8 9.2 48 0 86.8-38.8 86.8-86.8 0-22.4-8.4-42.6-22.2-58-11.6-5.8-24.8-9.2-38.8-9.2-48 0-86.8 38.8-86.8 86.8z" fill="#FD919E" p-id="6227"></path><path d="M760.6 599.6c-54.4 0-98.6-44.2-98.6-98.6s44.2-98.6 98.6-98.6c54.4 0 98.6 44.2 98.6 98.6s-44.2 98.6-98.6 98.6z m0-173.4c-41.4 0-75 33.6-75 75s33.6 75 75 75 75-33.6 75-75-33.6-75-75-75z" fill="#4C4372" p-id="6228"></path></svg>