<?xml version="1.0" standalone="no"?><!DOCTYPE svg PUBLIC "-//W3C//DTD SVG 1.1//EN" "http://www.w3.org/Graphics/SVG/1.1/DTD/svg11.dtd"><svg t="1595323005475" class="icon" viewBox="0 0 1024 1024" version="1.1" xmlns="http://www.w3.org/2000/svg" p-id="3195" xmlns:xlink="http://www.w3.org/1999/xlink" width="128" height="128"><defs><style type="text/css"></style></defs><path d="M1024 512c0 282.767-229.242 512-512 512C229.233 1024 0 794.767 0 512S229.233 0 512 0c282.758 0 512 229.233 512 512z" fill="#EEF5FF" p-id="3196"></path><path d="M554.982 420.623l-68.378-37.198 132.441-215.403 68.38 37.198z" fill="#E77A30" p-id="3197"></path><path d="M596.133 633.367l-68.379-37.197 141.008-19.817 68.379 37.198z" fill="#F09A12" p-id="3198"></path><path d="M503.797 870.793l-68.38-37.197 0.271-146.246 68.38 37.197z" fill="#E77A30" p-id="3199"></path><path d="M596.525 500.141l-68.38-37.198 141.961-19.952 68.38 37.198z" fill="#F09A12" p-id="3200"></path><path d="M504.214 646.287l-68.38-37.199 0.104-55.334 68.378 37.198z" fill="#E77A30" p-id="3201"></path><path d="M687.425 205.22l-68.38-37.198 105.416-14.815 68.379 37.198zM363.445 744.311l-68.38-37.198 0.146-78.261 68.38 37.198zM363.591 666.05l-68.38-37.198 140.623-19.764 68.38 37.199zM363.479 532.893l-68.38-37.198 140.495-19.745 68.381 37.198z" fill="#F09A12" p-id="3202"></path><path d="M363.334 610.766l-68.381-37.198 0.146-77.873 68.38 37.198zM299.54 261.315l-68.38-37.198 107.26-15.075 68.38 37.199z" fill="#F09A12" p-id="3203"></path><path d="M792.84 190.405L596.525 500.141l141.961-19.952-0.144 77.874-142.106 19.97-0.103 55.334 141.008-19.816-0.145 78.261-141.008 19.817-0.271 146.246-91.92 12.918 0.271-146.246-140.623 19.764 0.146-78.261 140.623-19.763 0.102-55.335-140.982 19.814 0.145-77.873 140.496-19.745L299.54 261.315l107.26-15.074 148.182 174.382L687.425 205.22z" fill="#FFC101" p-id="3204"></path><path d="M503.975 513.148l-68.381-37.198L231.16 224.117l68.38 37.198z" fill="#E77A30" p-id="3205"></path></svg>